<svg width="97" height="35" viewBox="0 0 97 35" fill="none" xmlns="http://www.w3.org/2000/svg">
<mask id="mask0_1_692" style="mask-type:luminance" maskUnits="userSpaceOnUse" x="0" y="0" width="97" height="35">
<path d="M96.8544 0H0.616211V34.218H96.8544V0Z" fill="white"/>
</mask>
<g mask="url(#mask0_1_692)">
<path d="M0.616211 1.42517H21.3913V11.8127H11.0038L0.616211 1.42517ZM0.616211 11.8127H11.0038L21.3913 22.2003H0.616211V11.8127ZM0.616211 22.2003H11.0038V32.5878L0.616211 22.2003Z" fill="white"/>
<path d="M33.1133 9.61987H41.511V12.2884H36.2918V15.9967H41.511V18.6063H36.2918V23.3546H33.1133V9.61987ZM43.2376 13.8971H46.2397V15.8789C46.3966 15.1978 46.7173 14.6751 47.2011 14.3091C47.6973 13.9294 48.2481 13.7403 48.8493 13.7403C49.1635 13.7403 49.4253 13.7669 49.634 13.8187V16.6051C49.3345 16.5689 49.0332 16.5495 48.7315 16.5461C47.9074 16.5461 47.2867 16.8137 46.8675 17.3503C46.4498 17.8735 46.2397 18.6581 46.2397 19.7051V23.3546H43.239V13.8971H43.2376ZM54.3731 23.6098C53.4578 23.6098 52.6594 23.3935 51.9793 22.962C51.3121 22.5305 50.7817 21.9179 50.449 21.196C50.0959 20.438 49.9182 19.5801 49.9182 18.6258C49.9182 17.6839 50.1026 16.8332 50.4685 16.0752C50.8116 15.3428 51.3563 14.7235 52.0382 14.2896C52.7307 13.8581 53.5225 13.6419 54.4126 13.6419C55.0794 13.6419 55.6753 13.7864 56.1981 14.0739C56.7209 14.3624 57.1134 14.7549 57.3753 15.2511V13.8971H60.3575V23.3546H57.3753V22.0201C57.1134 22.491 56.7081 22.8765 56.1587 23.1778C55.6093 23.4691 54.9953 23.6174 54.3731 23.6098ZM55.2367 21.1176C55.9557 21.1176 56.5118 20.8823 56.9043 20.4113C57.2969 19.9404 57.4932 19.3449 57.4932 18.6258C57.4932 17.9196 57.2969 17.3308 56.9043 16.8598C56.5118 16.3888 55.9557 16.1536 55.2367 16.1536C54.5556 16.1536 54.0072 16.3822 53.5885 16.8403C53.1831 17.2985 52.9802 17.893 52.9802 18.6258C52.9802 19.3587 53.1831 19.9599 53.5885 20.4308C54.0072 20.889 54.5566 21.1176 55.2367 21.1176ZM62.4572 13.8971H65.4593V15.2706C65.6694 14.7858 66.0087 14.3932 66.4792 14.0934C66.964 13.7935 67.5262 13.6419 68.1668 13.6419C69.6581 13.6419 70.6462 14.2236 71.1295 15.3884C71.3957 14.8604 71.812 14.4237 72.3267 14.1328C72.877 13.8016 73.5091 13.6319 74.1512 13.6419C76.3882 13.6419 77.5064 14.9231 77.5064 17.4876V23.3546H74.4848V18.037C74.4848 17.3968 74.3669 16.9259 74.1317 16.6245C73.896 16.3242 73.5428 16.1731 73.0719 16.1731C72.5619 16.1731 72.1694 16.3498 71.8947 16.703C71.62 17.0432 71.4826 17.6378 71.4826 18.4885V23.3546H68.461V18.0175C68.461 17.3769 68.3436 16.9121 68.1079 16.6245C67.8864 16.3242 67.539 16.1731 67.069 16.1731C66.5453 16.1731 66.146 16.3498 65.8714 16.703C65.5967 17.0432 65.4593 17.6378 65.4593 18.4885V23.3546H62.4581L62.4572 13.8971ZM88.7841 18.1354C88.7841 18.5403 88.7575 18.9789 88.7043 19.4499H81.7205C81.7471 20.0649 81.9557 20.5349 82.3483 20.8628C82.7408 21.1893 83.2717 21.3533 83.9375 21.3533C84.8666 21.3533 85.4555 21.0715 85.7035 20.5092H88.6468C88.5023 21.4384 87.9924 22.1897 87.116 22.7657C86.2529 23.328 85.1931 23.6098 83.9375 23.6098C82.316 23.6098 81.0404 23.1711 80.1113 22.2948C79.1959 21.4179 78.7378 20.1956 78.7378 18.6258C78.7378 17.6055 78.9469 16.7224 79.3656 15.9768C79.77 15.2321 80.3936 14.6294 81.1511 14.2502C81.9234 13.8453 82.8193 13.6419 83.8406 13.6419C84.8077 13.6419 85.6641 13.8315 86.4098 14.2112C87.1683 14.5909 87.7509 15.1204 88.1558 15.8005C88.575 16.4815 88.7841 17.2595 88.7841 18.1354ZM85.82 17.586C85.8072 16.9582 85.6308 16.4801 85.2901 16.1536C84.9508 15.8271 84.4593 15.6631 83.8187 15.6631C83.1781 15.6631 82.6681 15.8394 82.2884 16.193C81.9225 16.5333 81.7328 16.9971 81.719 17.586H85.82ZM90.1077 13.8971H93.1098V15.8789C93.2667 15.1978 93.5875 14.6751 94.0713 14.3091C94.5408 13.9394 95.1216 13.7388 95.7194 13.7403C96.0331 13.7403 96.2954 13.7669 96.5041 13.8187V16.6051C96.2047 16.5689 95.9034 16.5495 95.6016 16.5461C94.7775 16.5461 94.1568 16.8137 93.7377 17.3503C93.3185 17.8735 93.1098 18.6581 93.1098 19.7051V23.3546H90.1077V13.8971Z" fill="white"/>
</g>
</svg>
