<svg width="102" height="39" viewBox="0 0 102 39" fill="none" xmlns="http://www.w3.org/2000/svg">
<mask id="mask0_1_703" style="mask-type:luminance" maskUnits="userSpaceOnUse" x="0" y="0" width="102" height="39">
<path d="M101.973 0H0.854492V38.218H101.973V0Z" fill="white"/>
</mask>
<g mask="url(#mask0_1_703)">
<path fill-rule="evenodd" clip-rule="evenodd" d="M98.7538 25.4637C98.8145 26.1561 99.3682 27.0373 100.328 27.0373H100.889C101.107 27.0373 101.285 26.859 101.285 26.6412V14.2954H101.283C101.272 14.0874 101.1 13.9208 100.889 13.9208H99.1501C98.9393 13.9208 98.7674 14.0874 98.7566 14.2954H98.7538V15.2986C97.688 13.9849 96.0078 13.4396 94.3231 13.4396C90.493 13.4396 87.3883 16.5468 87.3883 20.3799C87.3883 24.2133 90.493 27.3205 94.3231 27.3205C96.0078 27.3205 97.8445 26.6666 98.7538 25.4622V25.4637ZM94.3295 24.8915C91.8938 24.8915 89.9192 22.8718 89.9192 20.3799C89.9192 17.8885 91.8938 15.8687 94.3295 15.8687C96.766 15.8687 98.7403 17.8885 98.7403 20.3799C98.7403 22.8718 96.766 24.8915 94.3295 24.8915Z" fill="white"/>
<path fill-rule="evenodd" clip-rule="evenodd" d="M85.1886 19.4999C85.1886 15.8988 82.9187 13.4694 79.2987 13.4694C77.5707 13.4694 76.1541 14.4694 75.6538 15.3284C75.5457 14.6567 75.1894 13.9507 74.0844 13.9507H73.5211C73.3033 13.9507 73.1254 14.1292 73.1254 14.347V25.4946V25.4963V26.6938H73.1276C73.139 26.9014 73.311 27.0682 73.5213 27.0682H75.2608C75.2874 27.0682 75.3135 27.065 75.3388 27.0601C75.3502 27.0579 75.3609 27.0534 75.3721 27.0502C75.3851 27.0462 75.3986 27.0431 75.4109 27.0381C75.4263 27.0316 75.4404 27.0231 75.4547 27.015C75.4618 27.0107 75.4692 27.0077 75.476 27.0031C75.4934 26.9919 75.5093 26.9784 75.5247 26.9647C75.5272 26.9622 75.5302 26.9604 75.5327 26.9581C75.55 26.9413 75.5659 26.9229 75.5798 26.9037C75.6233 26.8439 75.6499 26.7715 75.6543 26.6938H75.6565V19.4008C75.6565 17.4668 77.2233 15.8988 79.156 15.8988C81.0887 15.8988 82.6556 17.4668 82.6556 19.4008L82.6571 25.4968L82.6575 25.4946C82.6575 25.5 82.6584 25.5055 82.6584 25.5113V26.6938H82.6607C82.6722 26.9014 82.844 27.0682 83.0543 27.0682H84.7938C84.8206 27.0682 84.8466 27.065 84.8717 27.0601C84.8821 27.0582 84.8915 27.0541 84.9017 27.0513C84.9159 27.0471 84.9305 27.0436 84.9442 27.0381C84.9584 27.0322 84.9714 27.024 84.9848 27.0164C84.9931 27.0117 85.0017 27.0084 85.0095 27.0031C85.0256 26.9926 85.0403 26.9798 85.0548 26.9672C85.0584 26.9638 85.0626 26.9613 85.066 26.9578C85.0826 26.9419 85.0972 26.9247 85.1106 26.9067L85.1137 26.9029C85.1566 26.8436 85.1828 26.7721 85.1873 26.6948L85.1875 26.6938H85.1899L85.1886 19.4999Z" fill="white"/>
<path fill-rule="evenodd" clip-rule="evenodd" d="M67.0736 25.4637C67.1344 26.156 67.6882 27.0373 68.6477 27.0373H69.209C69.4266 27.0373 69.6048 26.8589 69.6048 26.6412V14.2954H69.6025C69.5912 14.0874 69.4191 13.9208 69.209 13.9208H67.4696C67.2592 13.9208 67.0874 14.0874 67.0756 14.2954H67.0736V15.2986C66.0078 13.9849 64.3275 13.4396 62.6425 13.4396C58.8126 13.4396 55.7079 16.5468 55.7079 20.38C55.7079 24.2133 58.8126 27.3206 62.6425 27.3206C64.3275 27.3206 66.1639 26.6667 67.0734 25.4621L67.0736 25.4637ZM62.6493 24.8915C60.2137 24.8915 58.2389 22.8718 58.2389 20.38C58.2389 17.8885 60.2137 15.8687 62.6493 15.8687C65.0853 15.8687 67.0597 17.8885 67.0597 20.38C67.0597 22.8718 65.0853 24.8915 62.6493 24.8915Z" fill="white"/>
<path fill-rule="evenodd" clip-rule="evenodd" d="M45.4216 23.6955C46.5828 24.5006 47.8503 24.8916 49.0683 24.8916C50.2287 24.8916 51.4283 24.2896 51.4283 23.2417C51.4283 21.8427 48.8143 21.625 47.172 21.0664C45.5292 20.5078 44.1144 19.353 44.1144 17.4829C44.1144 14.6213 46.6622 13.4395 49.0401 13.4395C50.5468 13.4395 52.1013 13.9367 53.1091 14.6489C53.4562 14.9121 53.2449 15.2143 53.2449 15.2143L52.2828 16.5894C52.1747 16.7443 51.9856 16.8781 51.7142 16.7105C51.4428 16.5429 50.4909 15.8686 49.0401 15.8686C47.5892 15.8686 46.7153 16.5391 46.7153 17.3702C46.7153 18.3669 47.8512 18.6803 49.1816 19.02C51.5001 19.6454 54.0292 20.3972 54.0292 23.2417C54.0292 25.763 51.6727 27.3211 49.0683 27.3211C47.0947 27.3211 45.4143 26.758 44.005 25.7231C43.7114 25.429 43.9165 25.1559 43.9165 25.1559L44.8738 23.7878C45.0686 23.532 45.3142 23.6212 45.4216 23.6955Z" fill="white"/>
<path fill-rule="evenodd" clip-rule="evenodd" d="M38.7344 25.4637C38.7952 26.156 39.3491 27.0373 40.3084 27.0373H40.8698C41.0874 27.0373 41.2658 26.8589 41.2658 26.6412V14.2954H41.2633C41.2519 14.0874 41.0801 13.9208 40.8698 13.9208H39.1304C38.92 13.9208 38.7482 14.0874 38.7365 14.2954H38.7344V15.2986C37.6687 13.9849 35.9884 13.4396 34.3035 13.4396C30.4735 13.4396 27.3687 16.5468 27.3687 20.38C27.3687 24.2133 30.4735 27.3206 34.3035 27.3206C35.9884 27.3206 37.8247 26.6667 38.7342 25.4621L38.7344 25.4637ZM34.3102 24.8915C31.8744 24.8915 29.8997 22.8718 29.8997 20.38C29.8997 17.8885 31.8744 15.8687 34.3102 15.8687C36.746 15.8687 38.7205 17.8885 38.7205 20.38C38.7205 22.8718 36.746 24.8915 34.3102 24.8915Z" fill="white"/>
<path fill-rule="evenodd" clip-rule="evenodd" d="M17.6462 20.852C15.0688 20.852 12.9793 22.9414 12.9793 25.5191C12.9793 28.0965 15.0688 30.1859 17.6462 30.1859C20.2236 30.1859 22.313 28.0965 22.313 25.5191C22.313 22.9414 20.2236 20.852 17.6462 20.852ZM5.52134 20.8525C2.94393 20.8525 0.854492 22.9414 0.854492 25.5191C0.854492 28.0965 2.94393 30.1859 5.52134 30.1859C8.09886 30.1859 10.1884 28.0965 10.1884 25.5191C10.1884 22.9414 8.09886 20.8525 5.52134 20.8525ZM16.2505 15.0183C16.2505 17.5959 14.1612 19.6856 11.5838 19.6856C9.00627 19.6856 6.91693 17.5959 6.91693 15.0183C6.91693 12.4412 9.00627 10.3516 11.5838 10.3516C14.1612 10.3516 16.2505 12.4412 16.2505 15.0183Z" fill="#F06A6A"/>
</g>
</svg>
