<svg width="123" height="39" viewBox="0 0 123 39" fill="none" xmlns="http://www.w3.org/2000/svg">
<mask id="mask0_1_685" style="mask-type:luminance" maskUnits="userSpaceOnUse" x="0" y="0" width="123" height="39">
<path d="M122.616 0H0V38.218H122.616V0Z" fill="white"/>
</mask>
<g mask="url(#mask0_1_685)">
<path d="M49.1331 20.4331L47.0015 14.8545C46.9146 14.6263 46.5822 14.6263 46.495 14.8545L44.3638 20.4333C44.3487 20.473 44.3437 20.5157 44.3492 20.5576C44.3547 20.5996 44.3705 20.6395 44.3954 20.6742C44.4203 20.7089 44.4535 20.7374 44.4921 20.757C44.5307 20.7765 44.5736 20.7867 44.6172 20.7866H48.8797C48.9233 20.7866 48.9662 20.7765 49.0048 20.7569C49.0434 20.7373 49.0766 20.7089 49.1014 20.6742C49.1263 20.6395 49.1422 20.5994 49.1476 20.5575C49.1531 20.5155 49.1483 20.4728 49.1331 20.4331ZM50.1177 23.5687H43.3794C43.3242 23.5687 43.2704 23.5851 43.2252 23.6157C43.1799 23.6462 43.1454 23.6895 43.1262 23.7397L41.7996 27.2108C41.7804 27.261 41.7458 27.3043 41.7006 27.3349C41.6553 27.3654 41.6015 27.3818 41.5464 27.3818H38.6258C38.5816 27.3818 38.5381 27.3713 38.4991 27.3512C38.4601 27.3311 38.4268 27.302 38.4021 27.2665C38.3773 27.231 38.362 27.19 38.3573 27.1474C38.3525 27.1048 38.3587 27.0617 38.3751 27.0219L45.0992 10.7586C45.1194 10.71 45.154 10.6684 45.1987 10.6391C45.2434 10.6098 45.2962 10.5942 45.3501 10.5943H48.1466C48.2568 10.5943 48.3561 10.6593 48.3973 10.7586L55.1213 27.0217C55.1378 27.0616 55.144 27.1047 55.1393 27.1474C55.1346 27.19 55.1192 27.231 55.0945 27.2666C55.0698 27.3021 55.0364 27.3313 54.9974 27.3514C54.9583 27.3715 54.9148 27.382 54.8706 27.382H51.9505C51.8954 27.382 51.8415 27.3655 51.7963 27.3349C51.751 27.3043 51.7165 27.2611 51.6973 27.2108L50.3706 23.7397C50.3514 23.6895 50.3168 23.6462 50.2716 23.6157C50.2263 23.5851 50.1728 23.5687 50.1177 23.5687ZM56.4897 16.3019H58.9876C59.0593 16.3019 59.128 16.3295 59.1786 16.3787C59.2293 16.4279 59.2578 16.4945 59.2578 16.5641V27.1196C59.2578 27.1891 59.2293 27.2558 59.1786 27.305C59.128 27.3542 59.0593 27.3818 58.9876 27.3818H56.4897C56.418 27.3818 56.3493 27.3542 56.2987 27.305C56.248 27.2558 56.2195 27.1891 56.2195 27.1196V16.5639C56.2195 16.4943 56.248 16.4277 56.2987 16.3785C56.3493 16.3294 56.418 16.3019 56.4897 16.3019ZM68.3681 18.8694C68.3681 18.939 68.3396 19.0058 68.2889 19.055C68.2383 19.1041 68.1696 19.1318 68.0979 19.1318H68.0223C66.7872 19.1318 65.8812 19.4195 65.305 19.9951C64.7284 20.5706 64.4406 21.5221 64.4406 22.8491V27.1196C64.4406 27.1891 64.4122 27.2558 64.3615 27.305C64.3109 27.3542 64.2422 27.3818 64.1705 27.3818H61.697C61.6254 27.3818 61.5567 27.3542 61.506 27.305C61.4554 27.2558 61.4269 27.1891 61.4269 27.1196V16.5639C61.4269 16.4943 61.4554 16.4277 61.506 16.3785C61.5567 16.3294 61.6254 16.3017 61.697 16.3017H64.1457C64.2173 16.3017 64.286 16.3294 64.3367 16.3785C64.3873 16.4277 64.4158 16.4943 64.4158 16.5639V18.6518H64.4653C64.7617 17.7885 65.231 17.1254 65.8735 16.6614C66.5155 16.1979 67.306 15.9659 68.2445 15.9659H68.3681V18.8694ZM75.1983 18.7719C75.1266 18.7719 75.0579 18.7996 75.0073 18.8488C74.9566 18.8979 74.9282 18.9647 74.9282 19.0342V23.4246C74.9282 23.8724 75.0182 24.1922 75.1997 24.3839C75.3807 24.5757 75.6937 24.6716 76.1383 24.6716H76.3869C76.4586 24.6716 76.5273 24.6994 76.5779 24.7485C76.6286 24.7977 76.6571 24.8644 76.6571 24.934V27.1434C76.6571 27.2129 76.6286 27.2796 76.5779 27.3288C76.5273 27.378 76.4586 27.4056 76.3869 27.4056H75.3231C74.2197 27.4056 73.3718 27.1299 72.779 26.5783C72.186 26.0267 71.8896 25.2076 71.8896 24.1201V19.0342C71.8896 18.9647 71.8611 18.8979 71.8105 18.8488C71.7598 18.7996 71.6911 18.7719 71.6195 18.7719H70.0602C69.9886 18.7719 69.9199 18.7443 69.8692 18.6951C69.8186 18.646 69.7901 18.5793 69.7901 18.5097V16.5639C69.7901 16.4943 69.8186 16.4277 69.8692 16.3785C69.9199 16.3294 69.9886 16.3017 70.0602 16.3017H71.6197C71.6913 16.3017 71.76 16.274 71.8107 16.2248C71.8613 16.1756 71.8898 16.1089 71.8898 16.0394V12.1272C71.8898 12.0577 71.9182 11.991 71.9689 11.9418C72.0195 11.8926 72.0882 11.865 72.1599 11.865H74.6579C74.7295 11.865 74.7982 11.8926 74.8489 11.9418C74.8995 11.991 74.928 12.0577 74.928 12.1272V16.0394C74.928 16.1089 74.9564 16.1756 75.0071 16.2248C75.0578 16.274 75.1265 16.3017 75.1981 16.3017H77.0044C77.0761 16.3017 77.1448 16.3294 77.1954 16.3785C77.2461 16.4277 77.2745 16.4943 77.2745 16.5639V18.5098C77.2745 18.5793 77.2461 18.646 77.1954 18.6952C77.1448 18.7444 77.0761 18.7721 77.0044 18.7721L75.1983 18.7719ZM86.6368 24.0962C87.2049 23.5206 87.4889 22.7692 87.4889 21.8417C87.4889 20.9147 87.2049 20.1629 86.6368 19.5874C86.0686 19.0118 85.3233 18.7241 84.4011 18.7241C83.4788 18.7241 82.734 19.0118 82.1657 19.5874C81.5977 20.1629 81.3136 20.9147 81.3136 21.8417C81.3136 22.7692 81.5977 23.5206 82.1657 24.0962C82.734 24.6717 83.4788 24.9594 84.4011 24.9594C85.3233 24.9594 86.0686 24.6717 86.6368 24.0962ZM80.869 27.0459C80.0291 26.5824 79.3661 25.9068 78.8806 25.0195C78.3946 24.1322 78.1518 23.073 78.1518 21.8417C78.1518 20.6108 78.3946 19.5514 78.8806 18.6641C79.3661 17.7768 80.0291 17.1016 80.869 16.6376C81.7089 16.1739 82.6308 15.942 83.6355 15.942C84.5247 15.942 85.2862 16.1099 85.9206 16.4456C86.5541 16.7813 87.0605 17.2532 87.4395 17.8607H87.4889V16.5639C87.4889 16.4943 87.5173 16.4277 87.568 16.3785C87.6186 16.3294 87.6873 16.3017 87.759 16.3017H90.2323C90.3039 16.3017 90.3726 16.3294 90.4233 16.3785C90.4739 16.4277 90.5024 16.4943 90.5024 16.5639V27.1194C90.5024 27.189 90.4739 27.2557 90.4233 27.3048C90.3726 27.354 90.3039 27.3817 90.2323 27.3817H87.759C87.6873 27.3817 87.6186 27.354 87.568 27.3048C87.5173 27.2557 87.4889 27.189 87.4889 27.1194V25.8228H87.4395C87.0605 26.4307 86.5541 26.9021 85.9204 27.2378C85.2862 27.5734 84.5248 27.7413 83.6355 27.7413C82.6308 27.7413 81.7089 27.5094 80.869 27.0459ZM100.789 24.0962C101.357 23.5206 101.641 22.7692 101.641 21.8417C101.641 20.9147 101.357 20.1629 100.789 19.5874C100.221 19.0118 99.4755 18.7241 98.5533 18.7241C97.631 18.7241 96.886 19.0118 96.3179 19.5874C95.75 20.1629 95.4656 20.9147 95.4656 21.8417C95.4656 22.7692 95.75 23.5206 96.3179 24.0962C96.886 24.6717 97.631 24.9594 98.5533 24.9594C99.4755 24.9594 100.221 24.6717 100.789 24.0962ZM97.0342 27.2378C96.4002 26.9021 95.8936 26.4307 95.5151 25.8228H95.4656V27.1194C95.4656 27.189 95.4371 27.2557 95.3865 27.3048C95.3358 27.354 95.2671 27.3817 95.1955 27.3817H92.6975C92.6259 27.3817 92.5572 27.354 92.5065 27.3048C92.4559 27.2557 92.4274 27.189 92.4274 27.1194V10.856C92.4274 10.7864 92.4559 10.7197 92.5065 10.6706C92.5572 10.6214 92.6259 10.5938 92.6975 10.5938H95.1955C95.2671 10.5938 95.3358 10.6214 95.3865 10.6706C95.4371 10.7197 95.4656 10.7864 95.4656 10.856V17.8605H95.5151C95.8936 17.253 96.4002 16.7813 97.0342 16.4456C97.6681 16.1098 98.4298 15.9419 99.3192 15.9419C100.323 15.9419 101.246 16.1737 102.086 16.6374C102.926 17.1014 103.588 17.7766 104.074 18.6637C104.56 19.5515 104.803 20.611 104.803 21.8419C104.803 23.0732 104.56 24.1322 104.074 25.0196C103.588 25.9069 102.926 26.5826 102.086 27.0459C101.246 27.5095 100.324 27.7416 99.3194 27.7416C98.43 27.7416 97.6681 27.5737 97.0342 27.2378ZM109.012 27.3818H106.514C106.442 27.3818 106.373 27.3542 106.323 27.305C106.272 27.2558 106.244 27.1891 106.244 27.1196V10.8565C106.244 10.787 106.272 10.7203 106.323 10.6711C106.373 10.6219 106.442 10.5943 106.514 10.5943H109.012C109.083 10.5943 109.152 10.6219 109.203 10.6711C109.253 10.7203 109.282 10.787 109.282 10.8565V27.1196C109.282 27.1891 109.253 27.2558 109.203 27.305C109.152 27.3542 109.083 27.3818 109.012 27.3818ZM114.904 18.868C114.49 19.1817 114.21 19.6346 114.065 20.2269C114.026 20.3902 114.157 20.5469 114.33 20.5469H119.084C119.249 20.5469 119.378 20.4035 119.352 20.2455C119.257 19.6851 119.009 19.2384 118.609 18.9041C118.14 18.5125 117.526 18.3167 116.769 18.3167C116.011 18.3167 115.39 18.5003 114.904 18.868ZM120.993 17.489C121.964 18.5205 122.45 19.9795 122.45 21.8658V22.1791C122.45 22.2487 122.422 22.3153 122.371 22.3645C122.32 22.4136 122.252 22.4414 122.18 22.4414H114.238C114.199 22.4414 114.16 22.4499 114.124 22.4662C114.088 22.4824 114.056 22.506 114.031 22.5354C114.005 22.5648 113.987 22.5993 113.976 22.6364C113.966 22.6735 113.964 22.7122 113.971 22.75C114.098 23.4508 114.417 24.0075 114.929 24.42C115.513 24.892 116.25 25.1275 117.14 25.1275C118.287 25.1275 119.35 24.6924 120.327 23.8223C120.447 23.716 120.636 23.7386 120.728 23.8678L121.943 25.5602C121.981 25.6129 121.998 25.6773 121.99 25.7411C121.982 25.805 121.951 25.8639 121.901 25.9067C121.305 26.4133 120.643 26.8407 119.931 27.1779C119.14 27.5534 118.21 27.7416 117.14 27.7416C115.905 27.7416 114.826 27.4975 113.904 27.01C112.981 26.5226 112.265 25.8351 111.755 24.9475C111.244 24.0602 110.989 23.0332 110.989 21.8658C110.989 20.699 111.236 19.6678 111.73 18.7721C112.224 17.877 112.916 17.1814 113.805 16.6856C114.694 16.1903 115.732 15.9423 116.917 15.9423C118.662 15.9423 120.021 16.458 120.993 17.489ZM59.584 12.3996C59.584 13.3888 58.758 14.1908 57.739 14.1908C56.7198 14.1908 55.8938 13.3888 55.8938 12.3994C55.8938 11.41 56.72 10.6081 57.739 10.6081C58.758 10.6081 59.584 11.4102 59.584 12.3996Z" fill="white"/>
<path d="M14.2259 5.86379L2.34816 10.6355C1.68764 10.9009 1.69449 11.812 2.35914 12.0678L14.2864 16.66C15.3343 17.0635 16.5014 17.0635 17.5493 16.66L29.4767 12.0676C30.1412 11.812 30.1484 10.9011 29.4875 10.6357L17.6102 5.86362C16.5266 5.42827 15.3095 5.42844 14.2259 5.86379Z" fill="#FCB400"/>
<path d="M16.9758 19.1665V30.6386C16.9758 31.1841 17.5425 31.5579 18.0649 31.3568L31.3555 26.3482C31.5037 26.2911 31.6309 26.1921 31.7205 26.0641C31.8101 25.936 31.8579 25.7848 31.8579 25.63V14.1581C31.8579 13.6124 31.2912 13.2388 30.7688 13.4398L17.4782 18.4485C17.33 18.5056 17.2029 18.6046 17.1133 18.7326C17.0237 18.8607 16.9758 19.0117 16.9758 19.1665Z" fill="#18BFFF"/>
<path d="M13.8726 19.7589L9.92822 21.6079L9.52773 21.7959L1.20146 25.6693C0.673838 25.9165 0 25.5431 0 24.9738V14.2065C0 14.0005 0.108765 13.8227 0.254625 13.689C0.314464 13.6311 0.38235 13.5817 0.456308 13.5421C0.65511 13.4262 0.938908 13.3953 1.18021 13.4879L13.8063 18.3452C14.4481 18.5924 14.4985 19.4653 13.8726 19.7589Z" fill="#F82B60"/>
<path d="M13.8726 19.7589L9.92824 21.6079L0.254639 13.6888C0.314489 13.631 0.382375 13.5816 0.456322 13.5421C0.655124 13.4262 0.938921 13.3953 1.18022 13.4879L13.8063 18.3452C14.4481 18.5924 14.4985 19.4654 13.8726 19.7589Z" fill="white" fill-opacity="0.25"/>
</g>
</svg>
