<svg width="125" height="36" viewBox="0 0 125 36" fill="none" xmlns="http://www.w3.org/2000/svg">
<mask id="mask0_1_718" style="mask-type:luminance" maskUnits="userSpaceOnUse" x="0" y="0" width="125" height="36">
<path d="M124.236 0.5H0.972656V35.718H124.236V0.5Z" fill="white"/>
</mask>
<g mask="url(#mask0_1_718)">
<path fill-rule="evenodd" clip-rule="evenodd" d="M57.123 22.8329C56.2657 23.0306 55.8222 22.7668 55.8222 22.1989C55.8222 21.4208 56.6267 21.1094 57.776 21.1094C58.2815 21.1094 58.7584 21.153 58.7584 21.153C58.7584 21.4861 58.0346 22.6227 57.123 22.8329ZM57.9954 15.0428C55.251 15.0428 53.2806 16.052 53.2806 16.052V19.0187C53.2806 19.0187 55.456 17.7681 57.221 17.7681C58.6289 17.7681 58.8021 18.5278 58.7383 19.1581C58.7383 19.1581 58.3318 19.0506 57.0926 19.0506C54.1713 19.0506 52.6973 20.3782 52.6973 22.5067C52.6973 24.5259 54.354 25.3696 55.7503 25.3696C57.787 25.3696 58.6829 24.0005 58.9576 23.3512C59.1488 22.9007 59.184 22.597 59.3549 22.597C59.5512 22.597 59.4852 22.8149 59.4753 23.2632C59.4591 24.0486 59.4966 24.6422 59.6209 25.1426H62.322V20.284C62.322 17.2505 61.2486 15.0428 57.9954 15.0428Z" fill="white"/>
<path fill-rule="evenodd" clip-rule="evenodd" d="M75.7734 20.2112C75.7734 19.3238 76.5984 18.5155 78.1128 18.5155C79.7625 18.5155 81.0902 19.3102 81.3877 19.4907V16.0563C81.3877 16.0563 80.3392 15.0467 77.7621 15.0467C75.0455 15.0467 72.7832 16.6362 72.7832 20.0579C72.7832 23.4791 74.8364 25.3765 77.7547 25.3765C80.0347 25.3765 81.3935 24.1237 81.3935 24.1237V20.862C80.9636 21.1023 79.7658 21.934 78.1293 21.934C76.3967 21.934 75.7734 21.1364 75.7734 20.2112ZM39.6714 15.2716C39.6718 15.2738 39.8438 16.0118 39.6171 16.977C39.5016 17.4678 39.2892 17.8854 39.5456 17.8854C39.7224 17.8854 39.7228 17.7386 39.9528 17.2126C40.2892 16.4436 40.9983 15.0441 42.6554 15.0441C44.2307 15.0441 44.9728 16.0012 45.2186 16.8974C45.4057 17.5783 45.2421 17.8854 45.4703 17.8854C45.6324 17.8854 45.6885 17.5321 45.8881 17.0852C46.2465 16.2847 47.0261 15.0441 48.6028 15.0441C50.9818 15.0441 51.8902 16.7621 51.8902 19.3392V25.1461H48.3559V19.7926C48.3559 18.9001 48.2118 18.0343 47.3981 18.0343C46.6442 18.0343 46.2927 19.3703 46.2927 20.2329V25.1482H42.6936V19.793C42.6936 18.651 42.5325 18.0346 41.7298 18.0346C41.035 18.0346 40.6296 19.264 40.6296 20.2332V25.1465H37.0448V15.2716H39.6714ZM63.4985 15.2851C63.4985 15.2851 64.11 15.6377 65.2942 15.6377C66.4806 15.6377 67.083 15.2851 67.083 15.2851V25.1487H63.4985V15.2851ZM93.0921 15.2851C93.0921 15.2851 93.7036 15.6377 94.8882 15.6377C96.0742 15.6377 96.677 15.2851 96.677 15.2851V25.1487H93.0921V15.2851ZM71.8279 12.2821V25.1487H68.243V12.2821H71.8279ZM85.6479 12.2821C85.6479 12.2821 85.7965 12.653 85.7965 13.7528C85.7965 15.3768 85.4432 16.6986 85.2763 17.2023C85.1879 17.469 85.0302 17.8806 85.2565 17.8879C85.3871 17.892 85.4656 17.6953 85.6256 17.3541C85.7848 17.0125 86.5742 15.0463 88.6492 15.0463C91.5073 15.0463 91.9277 17.3868 91.9277 19.9214V25.1482H88.3428V19.7067C88.3428 18.5907 88.1088 18.0365 87.3608 18.0365C86.4576 18.0365 86.1384 19.435 86.1384 20.2354V25.1482H82.5535V12.2817L85.6479 12.2821ZM100.515 15.2716C100.515 15.2738 100.687 16.0118 100.46 16.977C100.345 17.4678 100.132 17.8854 100.389 17.8854C100.566 17.8854 100.566 17.7386 100.796 17.2126C101.132 16.4436 101.842 15.0441 103.499 15.0441C105.146 15.0441 105.799 16.0056 106.062 16.8974C106.238 17.495 106.085 17.8854 106.313 17.8854C106.476 17.8854 106.532 17.5321 106.731 17.0852C107.089 16.2847 107.869 15.0441 109.446 15.0441C111.825 15.0441 112.733 16.7621 112.733 19.3392V25.1461H109.199V19.7926C109.199 18.9001 109.055 18.0343 108.241 18.0343C107.487 18.0343 107.136 19.3703 107.136 20.2329V25.1482H103.536V19.793C103.536 18.651 103.376 18.0346 102.573 18.0346C101.878 18.0346 101.473 19.264 101.473 20.2332V25.1465H97.888V15.2716H100.515ZM65.2799 12.1823C64.0686 12.1823 63.0858 12.8235 63.0858 13.6145C63.0858 14.4054 64.0682 15.0467 65.2799 15.0467C66.492 15.0467 67.4744 14.4054 67.4744 13.6145C67.4744 12.8235 66.4924 12.1823 65.2799 12.1823ZM94.8739 12.1823C93.6622 12.1823 92.6794 12.8235 92.6794 13.6145C92.6794 14.4054 93.6618 15.0467 94.8739 15.0467C96.0856 15.0467 97.0684 14.4054 97.0684 13.6145C97.0684 12.8235 96.086 12.1823 94.8739 12.1823Z" fill="white"/>
<path fill-rule="evenodd" clip-rule="evenodd" d="M118.84 23.0208C118.018 23.0208 117.414 21.9785 117.414 20.5261C117.414 19.1156 118.034 18.0322 118.812 18.0322C119.808 18.0322 120.234 18.9468 120.234 20.5261C120.234 22.1692 119.842 23.0208 118.84 23.0208ZM119.823 15.0406C117.981 15.0406 117.137 16.4218 116.77 17.2087C116.527 17.7285 116.54 17.8815 116.362 17.8815C116.107 17.8815 116.319 17.4641 116.434 16.9732C116.662 16.0066 116.489 15.268 116.489 15.268H113.864V27.8668H117.447V23.8725C117.871 24.5919 118.656 25.3605 119.867 25.3605C122.459 25.3605 123.763 23.1678 123.763 20.2055C123.763 16.848 122.201 15.0406 119.823 15.0406Z" fill="white"/>
<path fill-rule="evenodd" clip-rule="evenodd" d="M24.3724 18.0217C24.6134 17.9931 24.8441 17.9916 25.0565 18.0217C25.1794 17.7399 25.2003 17.2546 25.0899 16.7259C24.9259 15.9401 24.7036 15.4647 24.2443 15.5388C23.785 15.6129 23.7681 16.1823 23.9325 16.9677C24.0249 17.4098 24.1893 17.7876 24.3724 18.0217Z" fill="white"/>
<path fill-rule="evenodd" clip-rule="evenodd" d="M20.432 18.6435C20.7603 18.7877 20.9624 18.8834 21.0413 18.7998C21.0923 18.7477 21.0769 18.6483 20.9984 18.5203C20.8362 18.2558 20.5028 17.9872 20.1487 17.8364C19.4253 17.525 18.5621 17.6284 17.8963 18.1068C17.6765 18.2679 17.4682 18.4909 17.4979 18.6263C17.5074 18.6699 17.5404 18.7029 17.6175 18.714C17.7987 18.7345 18.4319 18.4146 19.1615 18.3698C19.6762 18.3383 20.1033 18.4993 20.432 18.6435Z" fill="white"/>
<path fill-rule="evenodd" clip-rule="evenodd" d="M19.7725 19.0207C19.3444 19.0882 19.1085 19.2294 18.957 19.3604C18.8279 19.4734 18.7479 19.5985 18.7486 19.6861C18.749 19.728 18.767 19.7522 18.7813 19.7643C18.8007 19.7815 18.8238 19.7911 18.8517 19.7911C18.9482 19.7911 19.165 19.7041 19.165 19.7041C19.7604 19.491 20.1533 19.517 20.5425 19.561C20.7575 19.5853 20.8595 19.5985 20.9064 19.5247C20.9204 19.5035 20.9373 19.4576 20.8943 19.3879C20.7942 19.2254 20.3617 18.9506 19.7725 19.0207Z" fill="white"/>
<path fill-rule="evenodd" clip-rule="evenodd" d="M23.0427 20.4045C23.3332 20.5472 23.6531 20.4911 23.7573 20.2794C23.8615 20.0678 23.7104 19.7802 23.4198 19.6375C23.1293 19.4948 22.8094 19.5509 22.7052 19.7625C22.601 19.9746 22.7521 20.2618 23.0427 20.4045Z" fill="white"/>
<path fill-rule="evenodd" clip-rule="evenodd" d="M24.911 18.7725C24.6751 18.7685 24.4792 19.0275 24.4737 19.3514C24.4682 19.6753 24.6553 19.9406 24.8911 19.9446C25.127 19.9486 25.3229 19.6896 25.3284 19.3657C25.3339 19.0422 25.1468 18.7766 24.911 18.7725Z" fill="white"/>
<path fill-rule="evenodd" clip-rule="evenodd" d="M9.05565 24.6089C8.99695 24.5352 8.90047 24.5576 8.80692 24.5796C8.74162 24.595 8.66788 24.6119 8.58681 24.6108C8.41329 24.6075 8.26618 24.5334 8.18364 24.4064C8.07615 24.2414 8.08239 23.9952 8.20088 23.7135L8.25627 23.5873C8.44557 23.1624 8.76217 22.4518 8.40669 21.7746C8.13888 21.2647 7.70233 20.9474 7.17736 20.8806C6.67331 20.8168 6.15458 21.0035 5.82368 21.3685C5.30165 21.9445 5.21984 22.7285 5.32072 23.0054C5.35777 23.1067 5.41574 23.1349 5.45756 23.1408C5.54634 23.1525 5.67767 23.088 5.75984 22.8668L5.78332 22.7949C5.82001 22.6778 5.88824 22.4599 6.00013 22.2853C6.13513 22.0747 6.34497 21.9298 6.5915 21.8766C6.84243 21.8227 7.09922 21.8708 7.3142 22.0116C7.67995 22.2508 7.82082 22.6991 7.66454 23.1265C7.58384 23.3477 7.4525 23.7707 7.48148 24.1181C7.54018 24.8213 7.9727 25.1038 8.36119 25.1339C8.73905 25.1482 9.00319 24.9358 9.06995 24.781C9.10921 24.6893 9.07619 24.6335 9.05454 24.6097" fill="white"/>
<path fill-rule="evenodd" clip-rule="evenodd" d="M12.6496 11.6923C13.8822 10.2682 15.3991 9.02999 16.7583 8.3348C16.8053 8.31059 16.8551 8.36159 16.8298 8.40781C16.722 8.60334 16.514 9.02191 16.4483 9.33924C16.438 9.38877 16.492 9.42582 16.5338 9.39758C17.3794 8.82125 18.8501 8.20347 20.1403 8.12423C20.1957 8.12093 20.2225 8.19173 20.1785 8.22585C19.9822 8.37626 19.7676 8.58463 19.6109 8.7952C19.5842 8.83116 19.6095 8.88252 19.6542 8.88288C20.56 8.88949 21.837 9.20645 22.6694 9.67345C22.7255 9.705 22.6855 9.81395 22.6224 9.79964C21.363 9.51093 19.3017 9.29192 17.16 9.81432C15.2483 10.2806 13.789 11.0008 12.7248 11.7748C12.6708 11.8141 12.6059 11.7425 12.6496 11.6923ZM23.8701 26.0901C23.9068 26.0747 23.9317 26.0333 23.9277 25.9918C23.9226 25.9408 23.8771 25.9038 23.8261 25.9089C23.8261 25.9089 21.1961 26.2981 18.7114 25.3887C18.9822 24.509 19.7015 24.8267 20.7893 24.9144C22.7497 25.0314 24.507 24.7449 25.8056 24.3722C26.9307 24.0493 28.4088 23.4125 29.5567 22.5064C29.9437 23.3567 30.0805 24.2929 30.0805 24.2929C30.0805 24.2929 30.3803 24.2394 30.6308 24.3934C30.8674 24.5391 31.041 24.8417 30.9225 25.6246C30.6811 27.0869 30.0596 28.274 29.0148 29.3661C28.3787 30.0507 27.6069 30.6457 26.7235 31.0786C26.2543 31.3251 25.755 31.5383 25.2271 31.7103C21.2886 32.9969 17.2568 31.5826 15.9575 28.5458C15.8536 28.3177 15.766 28.0785 15.697 27.8286C15.1434 25.8275 15.6133 23.4264 17.083 21.915C17.1736 21.8189 17.266 21.7048 17.266 21.5621C17.266 21.4428 17.1901 21.317 17.1244 21.2275C16.6101 20.4817 14.829 19.2109 15.1867 16.7515C15.4435 14.9848 16.9887 13.7404 18.4293 13.8142L18.7943 13.8351C19.4187 13.8721 19.9631 13.9521 20.4771 13.9737C21.3373 14.0112 22.1107 13.8861 23.0271 13.1226C23.336 12.8651 23.584 12.6417 24.0033 12.5709C24.0473 12.5632 24.157 12.5239 24.376 12.5342C24.5998 12.5463 24.8125 12.6076 25.0037 12.7349C25.7381 13.2235 25.8423 14.4074 25.8804 15.2731C25.9021 15.7673 25.9619 16.9632 25.9824 17.3066C26.029 18.0916 26.2356 18.2021 26.653 18.3396C26.8878 18.417 27.1057 18.4746 27.4271 18.5649C28.3993 18.8378 28.9756 19.1148 29.3391 19.4706C29.5559 19.693 29.6568 19.9292 29.688 20.1545C29.8025 20.9909 29.0387 22.0239 27.0162 22.9627C24.8056 23.9888 22.1235 24.2485 20.2705 24.042L19.6212 23.9686C18.1391 23.7691 17.2935 25.6844 18.1832 26.997C18.7565 27.843 20.3182 28.3932 21.8807 28.3936C25.463 28.394 28.2166 26.8642 29.2408 25.5432L29.3226 25.4265C29.3732 25.3506 29.3314 25.3087 29.2687 25.3517C28.4319 25.9243 24.715 28.1977 20.739 27.5135C20.739 27.5135 20.2559 27.4339 19.8149 27.2626C19.4646 27.1261 18.7309 26.7886 18.6417 26.0362C21.8502 27.0285 23.8701 26.0901 23.8701 26.0901ZM6.24688 18.4651C5.13091 18.6819 4.14738 19.3144 3.54611 20.1882C3.1866 19.8885 2.51709 19.3081 2.39859 19.0818C1.43854 17.2585 3.44632 13.714 4.84917 11.7121C8.31592 6.76504 13.7453 3.02058 16.2586 3.69999C16.6673 3.81555 18.0206 5.38457 18.0206 5.38457C18.0206 5.38457 15.5081 6.77861 13.1782 8.72183C10.0387 11.1391 7.6677 14.6524 6.24688 18.4651ZM8.12186 26.8312C7.9531 26.8602 7.78069 26.8715 7.6068 26.8671C5.92772 26.822 4.11436 25.3106 3.93424 23.5181C3.73504 21.5368 4.74755 20.0121 6.53999 19.6504C6.75423 19.6071 7.01323 19.5822 7.2924 19.5968C8.29684 19.6519 9.77673 20.423 10.1146 22.6109C10.414 24.5486 9.93851 26.5216 8.12186 26.8312ZM30.8652 23.3226C30.8509 23.2716 30.757 22.9293 30.6283 22.5166C30.4995 22.1036 30.3663 21.8134 30.3663 21.8134C30.8828 21.0404 30.892 20.3489 30.8231 19.9575C30.7497 19.4721 30.5475 19.0587 30.1403 18.6309C29.7331 18.2035 28.9 17.7655 27.7294 17.4368L27.1153 17.2662C27.1123 17.2409 27.083 15.8183 27.0566 15.2075C27.0371 14.7658 26.9993 14.0764 26.7855 13.3978C26.5305 12.4788 26.0866 11.6747 25.5323 11.1603C27.0621 9.57476 28.017 7.82781 28.0144 6.32959C28.01 3.44796 24.471 2.57596 20.1095 4.38197L19.1854 4.77414C19.1814 4.7701 17.5147 3.13504 17.4898 3.11303C12.5171 -1.22427 -3.03009 16.0571 1.9404 20.2542L3.02665 21.1747C2.7449 21.9047 2.63411 22.7411 2.72473 23.6403C2.84065 24.7955 3.43642 25.9027 4.40234 26.7582C5.31911 27.5704 6.52458 28.0847 7.69411 28.0836C9.62852 32.5412 14.0484 35.2758 19.2305 35.4298C24.7894 35.5949 29.4558 32.9866 31.4111 28.3011C31.5391 27.9724 32.0817 26.4907 32.0817 25.1825C32.0817 23.8681 31.3385 23.3226 30.8652 23.3226Z" fill="white"/>
</g>
</svg>
